# xmcd
#
# Track frame offsets: 
#        150
#        13475
#        32975
#        48412
#        67775
#        78562
#        99737
#        113900
#        143400
#        159412
#        177350
#        192637
#        226137
#        239575
#        253762
#        269312
#        282712
#        296025
#        314062
#
# Disc length: 4589 seconds
#
# Revision: 2
# Processed by: cddbd v1.5.2PL0 Copyright (c) Steve Scherf et al.
# Submitted via: ExactAudioCopyFreeDBPlugin 1.0
#
DISCID=2411eb13
DTITLE=Various Artist - Blues Spirit Vol.3 A Tribute To Janis Joplin
DYEAR=1996
DGENRE=Blues
TTITLE0=Billie Holiday - Summer Time
TTITLE1=Kris Kristofferson - Me And Bobby McGee
TTITLE2=Kris Kristofferson - Epitaph (Black And Blue)
TTITLE3=Hot Tuna - San Francisco Bay Blues
TTITLE4=Eric Anderson - Pearl's Good Time Blues
TTITLE5=Eric Anderson - Sheila
TTITLE6=Leonard Cohen - Chelsea Hotel #2
TTITLE7=John Hall - Arms／Half Moon
TTITLE8=Big Brother and The Holding Company - Mr. Natural
TTITLE9=Big Brother and The Holding Company - Buried Alive In The Blues
TTITLE10=Johnny and Edgar Winter - Let The Good Times Roll
TTITLE11=Taj Mahal - Stealin'
TTITLE12=Lead Berry - C.C. Rider
TTITLE13=Bessie Smith - Black Mountain Blues
TTITLE14=Bessie Smith - Careless Love Blues
TTITLE15=Bessie Smith - Nobody Knows You When You're Down And Out
TTITLE16=Aretha Franklin - Trouble In Mind
TTITLE17=Marion Williams - Amazing Grace
TTITLE18=Mahalia Jacson - Summertime／Sometimes I Feel Like A Motherles
TTITLE18=s Child
EXTD=
EXTT0=
EXTT1=
EXTT2=
EXTT3=
EXTT4=
EXTT5=
EXTT6=
EXTT7=
EXTT8=
EXTT9=
EXTT10=
EXTT11=
EXTT12=
EXTT13=
EXTT14=
EXTT15=
EXTT16=
EXTT17=
EXTT18=
PLAYORDER=
